<?xml version="1.0" standalone="no"?><!DOCTYPE svg PUBLIC "-//W3C//DTD SVG 1.1//EN" "http://www.w3.org/Graphics/SVG/1.1/DTD/svg11.dtd"><svg t="1576041132663" class="icon" viewBox="0 0 1024 1024" version="1.1" xmlns="http://www.w3.org/2000/svg" p-id="1975" width="256" height="256" xmlns:xlink="http://www.w3.org/1999/xlink"><defs><style type="text/css"></style></defs><path d="M512 512m-512 0a512 512 0 1 0 1024 0 512 512 0 1 0-1024 0Z" fill="#252c41" p-id="1976"></path><path d="M701.44 177.3568C684.9536 175.6672 643.3792 240.64 643.3792 240.64A427.6224 427.6224 0 0 0 512 222.0544 427.6224 427.6224 0 0 0 380.6208 240.64S339.0464 175.6672 322.56 177.3568s-74.8032 222.72-121.344 741.376a512 512 0 0 0 621.8752 0C776.3968 400.0768 718.2336 179.2 701.44 177.3568z" fill="#f4f5f9" p-id="1977"></path><path d="M843.52 318.8224a102.912 102.912 0 0 0-16.384-2.1504c-28.0576-1.8432-56.32-3.584-84.2752-4.1984-55.3472-1.1776-111.7696 1.792-164.9152 18.4832-22.3744 7.0144-43.1104 14.8992-65.9456 14.4896-22.8352 0.4096-43.5712-7.4752-65.9456-14.4896C393.2672 314.368 337.4592 310.8864 282.4704 312.32c-27.648 0.6144-55.1936 2.4064-82.7904 4.352-22.0672 1.5872-43.8784 4.5056-45.056 32.0512a23.7056 23.7056 0 0 0 9.6768 21.4016c5.12 3.7888 14.4896 2.4576 18.8416 7.0144s3.1744 12.8 3.4304 19.1488c2.2016 50.0736 9.216 105.2672 55.9104 134.6048 37.9392 23.8592 86.2208 27.0336 129.8432 26.4704 40.96-0.512 72.6528-20.48 90.0608-58.1632C471.04 480.3072 473.2416 459.7248 478.72 440.32c0 0 13.8752-49.408 33.28-49.2544s33.28 49.2544 33.28 49.2544c5.4784 19.6096 7.7312 40.192 16.3328 58.88 17.408 37.7344 48.9984 57.6512 90.0608 58.1632 43.6224 0.5632 91.904-2.6112 129.8432-26.4704 46.6944-29.3376 53.7088-84.5312 55.9104-134.6048 0.256-6.3488-1.1776-14.3872 3.4304-19.1488s13.6704-3.2256 18.8416-7.0144a23.7056 23.7056 0 0 0 9.6768-21.4016c-0.8192-18.944-11.6736-26.5728-25.856-29.9008z" fill="#1c202b" p-id="1978"></path></svg>